<mxfile host="app.diagrams.net" modified="2023-05-04T12:23:54.122Z" agent="Mozilla/5.0 (Windows NT 10.0; Win64; x64) AppleWebKit/537.36 (KHTML, like Gecko) Chrome/113.0.0.0 Safari/537.36" etag="LPfb-NeKtreavSg-Kz5H" version="21.1.2" type="github">
  <diagram name="第 1 页" id="IUhr0xh7eCGWo2UISA8x">
    <mxGraphModel dx="2257" dy="770" grid="1" gridSize="10" guides="1" tooltips="1" connect="1" arrows="1" fold="1" page="1" pageScale="1" pageWidth="827" pageHeight="1169" math="0" shadow="0">
      <root>
        <mxCell id="0" />
        <mxCell id="1" parent="0" />
        <mxCell id="7K7r8ZbEPZmxVmYAXXEN-1" value="&lt;b&gt;&lt;font style=&quot;font-size: 18px;&quot;&gt;SDAART&lt;/font&gt;&lt;/b&gt;" style="rounded=0;whiteSpace=wrap;html=1;" vertex="1" parent="1">
          <mxGeometry x="-770" y="100" width="1870" height="90" as="geometry" />
        </mxCell>
        <mxCell id="7K7r8ZbEPZmxVmYAXXEN-3" value="Init" style="rounded=0;whiteSpace=wrap;html=1;" vertex="1" parent="1">
          <mxGeometry x="-770" y="230" width="220" height="60" as="geometry" />
        </mxCell>
        <mxCell id="7K7r8ZbEPZmxVmYAXXEN-5" value="Task Dispatch" style="rounded=0;whiteSpace=wrap;html=1;" vertex="1" parent="1">
          <mxGeometry x="-350" y="230" width="420" height="60" as="geometry" />
        </mxCell>
        <mxCell id="7K7r8ZbEPZmxVmYAXXEN-6" value="Resource Management" style="rounded=0;whiteSpace=wrap;html=1;" vertex="1" parent="1">
          <mxGeometry x="160" y="230" width="420" height="60" as="geometry" />
        </mxCell>
        <mxCell id="7K7r8ZbEPZmxVmYAXXEN-7" value="Resource Management" style="rounded=0;whiteSpace=wrap;html=1;" vertex="1" parent="1">
          <mxGeometry x="680" y="230" width="420" height="60" as="geometry" />
        </mxCell>
        <mxCell id="7K7r8ZbEPZmxVmYAXXEN-8" value="" style="rounded=0;whiteSpace=wrap;html=1;" vertex="1" parent="1">
          <mxGeometry x="-770" y="320" width="110" height="50" as="geometry" />
        </mxCell>
      </root>
    </mxGraphModel>
  </diagram>
</mxfile>
